<svg width="123" height="32" viewBox="0 0 123 32" fill="none" xmlns="http://www.w3.org/2000/svg">
<path d="M29.8243 26.2364L28.3176 23.6983H6.66524L17.5083 4.93785L14.677 0H11.0234C10.2388 0.0017608 9.46876 0.211743 8.7919 0.608499C8.11505 1.00525 7.55564 1.57456 7.17082 2.25827L0.618472 13.8193C0.23749 14.4866 0.0371094 15.2417 0.0371094 16.0101C0.0371094 16.7785 0.23749 17.5337 0.618472 18.201L5.20579 26.2903L7.17082 29.7552C7.50764 30.3495 7.97746 30.8578 8.5435 31.2402C9.10955 31.6227 9.75644 31.8689 10.4335 31.9595C10.6278 31.9867 10.8238 32.0002 11.02 32H23.9797C24.7641 32.0004 25.5345 31.7929 26.2124 31.3986C26.8904 31.0042 27.4516 30.4372 27.839 29.7552L29.7906 26.2903L29.8243 26.2364Z" fill="url(#paint0_linear_11164_12223)"/>
<path d="M28.3175 23.6994H6.70557L6.79657 23.6455L14.05 19.284C15.169 18.556 16.0117 18.1313 16.8037 17.9931C16.8217 17.9915 16.8397 17.9915 16.8577 17.9931L17.0127 17.9729L17.2824 17.9526H17.4441C17.5738 17.9562 17.7031 17.9663 17.8318 17.983C18.6575 18.0942 19.544 18.5054 20.7506 19.2031L28.2771 23.6725L28.3175 23.6994Z" fill="url(#paint1_linear_11164_12223)"/>
<path d="M29.8241 26.2378L29.787 26.3018L27.8321 29.7533C27.4463 30.4352 26.8863 31.0023 26.2094 31.3968C25.5325 31.7912 24.763 31.9987 23.9795 31.9981H11.0198C10.8236 31.9982 10.6276 31.9847 10.4333 31.9576C9.7551 31.8677 9.10697 31.6218 8.53972 31.2394C7.97248 30.8569 7.50154 30.3483 7.16386 29.7533L5.20557 26.2917L6.70209 23.7031L6.77961 23.656L14.0465 19.2742C15.1689 18.5462 16.0082 18.1181 16.8036 17.9833C16.8216 17.9817 16.8396 17.9817 16.8576 17.9833L17.0126 17.9631L17.2822 17.9429H17.444C17.5737 17.9464 17.703 17.9565 17.8316 17.9732C18.6574 18.0844 19.5405 18.499 20.7472 19.1933L28.277 23.6728L28.3208 23.6998L29.8241 26.2378Z" fill="url(#paint2_linear_11164_12223)"/>
<g opacity="0.5">
<path d="M20.7277 19.1915C17.8695 17.5264 16.801 17.4759 14.027 19.2825L6.68262 23.6979L14.027 20.2229C16.801 18.4129 17.8594 18.4769 20.7277 20.1285L28.298 23.7013L20.7277 19.1915Z" fill="url(#paint3_linear_11164_12223)"/>
</g>
<path d="M34.3848 18.201L29.7908 26.2903L29.8279 26.2262L28.3179 23.6983L17.5321 4.91426V4.93786L14.6772 0H23.9833C24.7683 0.00220649 25.5386 0.212344 26.2159 0.609024C26.8932 1.0057 27.4533 1.57476 27.8392 2.25827L34.3848 13.8193C34.7642 14.4871 34.9637 15.242 34.9637 16.0101C34.9637 16.7782 34.7642 17.5331 34.3848 18.201Z" fill="url(#paint4_linear_11164_12223)"/>
<path d="M0.581362 18.201L5.17879 26.2903L5.14171 26.2262L6.64835 23.6882L17.4341 4.90415V4.92774L20.2957 0H10.9862C10.2017 0.0017608 9.43164 0.211744 8.75479 0.608499C8.07794 1.00525 7.51853 1.57456 7.13371 2.25827L0.581362 13.8193C0.20038 14.4866 0 15.2417 0 16.0101C0 16.7785 0.20038 17.5337 0.581362 18.201Z" fill="url(#paint5_linear_11164_12223)"/>
<path opacity="0.51" d="M20.2959 0L17.4849 4.89067L18.0073 5.72319L20.2959 0Z" fill="url(#paint6_linear_11164_12223)"/>
<path d="M117.922 24.2682V8.49407H121.589V24.2682H117.922ZM117.464 4.63816C117.464 3.26298 118.354 2.34619 119.756 2.34619C121.185 2.34619 122.048 3.26298 122.048 4.63816C122.048 6.01335 121.185 6.90317 119.756 6.90317C118.273 6.90317 117.464 6.01335 117.464 4.63816Z" fill="white"/>
<path d="M107.087 24.5937C103.285 24.5937 99.3208 21.5737 99.3208 16.3965C99.3208 11.1654 103.15 8.17236 107.14 8.17236C109.217 8.17236 111.05 9.00826 112.21 10.3834V8.49594H115.85V24.2701H112.21V22.2208C111.05 23.7039 109.163 24.5937 107.087 24.5937ZM107.68 21.2501C110.403 21.2501 112.399 19.066 112.399 16.3426C112.399 13.6461 110.403 11.489 107.68 11.489C104.983 11.489 102.907 13.6192 102.907 16.3426C102.907 19.0929 104.983 21.2501 107.68 21.2501Z" fill="white"/>
<path d="M93.7935 22.4069C93.7935 21.0856 94.6294 20.1958 96.0045 20.1958C97.3797 20.1958 98.1887 21.0856 98.1887 22.4069C98.1887 23.7012 97.3528 24.591 95.9776 24.591C94.6024 24.591 93.7935 23.7012 93.7935 22.4069Z" fill="white"/>
<path d="M84.6367 24.5937C79.6752 24.5937 76.3047 20.9804 76.3047 16.4235C76.3047 11.8126 79.891 8.17236 84.5019 8.17236C89.1937 8.17236 92.6181 11.6238 92.6181 16.2886V17.6638H79.7831C80.2954 19.9019 82.0481 21.3849 84.6367 21.3849C86.686 21.3849 88.2499 20.3063 89.0049 18.6076L91.998 20.3333C90.6228 22.8949 88.196 24.5937 84.6367 24.5937ZM84.5019 11.3811C82.3177 11.3811 80.619 12.6754 79.9718 14.6169H88.924C88.3847 12.4867 86.7669 11.3811 84.5019 11.3811Z" fill="white"/>
<path d="M67.0917 24.2664L61.0786 8.49219H64.8806L68.9522 19.6015L72.9429 8.49219H76.691L70.7588 24.2664H67.0917Z" fill="white"/>
<path d="M45.2832 24.2651L52.2939 4.58105H55.9881L62.9988 24.2651H59.1699L57.9565 20.7597H50.3255L49.1121 24.2651H45.2832ZM54.1545 9.78518L51.5659 17.2543H56.7431L54.1545 9.78518Z" fill="white"/>
<defs>
<linearGradient id="paint0_linear_11164_12223" x1="26.0246" y1="29.1553" x2="0.723405" y2="10.9427" gradientUnits="userSpaceOnUse">
<stop stop-color="#8B4FDD"/>
<stop offset="1" stop-color="#12B886"/>
</linearGradient>
<linearGradient id="paint1_linear_11164_12223" x1="25.5607" y1="23.1885" x2="22.6139" y2="14.6188" gradientUnits="userSpaceOnUse">
<stop stop-color="#8B4FDD"/>
<stop offset="1" stop-color="#12B886"/>
</linearGradient>
<linearGradient id="paint2_linear_11164_12223" x1="26.6837" y1="30.7486" x2="15.4844" y2="15.5792" gradientUnits="userSpaceOnUse">
<stop stop-color="#8B4FDD"/>
<stop offset="1" stop-color="#12B886"/>
</linearGradient>
<linearGradient id="paint3_linear_11164_12223" x1="25.5407" y1="23.1887" x2="22.5764" y2="14.5958" gradientUnits="userSpaceOnUse">
<stop stop-color="#8B4FDD"/>
<stop offset="1" stop-color="#12B886"/>
</linearGradient>
<linearGradient id="paint4_linear_11164_12223" x1="32.3759" y1="23.9531" x2="13.0849" y2="12.4421" gradientUnits="userSpaceOnUse">
<stop stop-color="#8B4FDD"/>
<stop offset="1" stop-color="#12B886"/>
</linearGradient>
<linearGradient id="paint5_linear_11164_12223" x1="17.7068" y1="23.9531" x2="-1.58843" y2="12.4343" gradientUnits="userSpaceOnUse">
<stop stop-color="#8B4FDD"/>
<stop offset="1" stop-color="#12B886"/>
</linearGradient>
<linearGradient id="paint6_linear_11164_12223" x1="19.9373" y1="5.21441" x2="16.7694" y2="4.01119" gradientUnits="userSpaceOnUse">
<stop stop-color="#8B4FDD"/>
<stop offset="1" stop-color="#12B886"/>
</linearGradient>
</defs>
</svg>
