<svg width="30" height="30" viewBox="0 0 30 30" fill="none" xmlns="http://www.w3.org/2000/svg">
<path d="M7.55664 0.000488281H13.9063L22.3726 20.4954H16.0229L7.55664 0.000488281Z" fill="#A0A0A0"/>
<path d="M9.96777 0.000488281H12.0057L20.3079 20.4954H18.434L9.96777 0.000488281Z" fill="white"/>
<path d="M23.5684 0.000488281H17.2187L8.75241 20.4954H15.1021L23.5684 0.000488281Z" fill="#A0A0A0"/>
<path d="M21.3306 0.000488281H19.2926L10.9904 20.4954H12.8643L21.3306 0.000488281Z" fill="white"/>
<path d="M7.68736 11.4676C7.92364 11.1555 8.29249 10.9722 8.68395 10.9722H22.441C22.8324 10.9722 23.2013 11.1555 23.4375 11.4676L26.5786 15.6165C26.9046 16.047 26.9172 16.6382 26.61 17.0822L19.0602 27.9944C18.8268 28.3318 18.4426 28.5331 18.0323 28.5331H13.0926C12.6823 28.5331 12.2981 28.3318 12.0647 27.9944L4.5149 17.0822C4.20767 16.6382 4.22031 16.047 4.54626 15.6165L7.68736 11.4676Z" fill="url(#paint0_linear_11381_2156)" stroke="url(#paint1_linear_11381_2156)" stroke-width="0.15625"/>
<path d="M8.74773 12.6524C8.9852 12.3657 9.33814 12.1997 9.71046 12.1997H21.4131C21.7855 12.1997 22.1384 12.3657 22.3759 12.6524L24.8722 15.6669C25.2353 16.1053 25.2563 16.7338 24.9232 17.1955L18.1738 26.5512C17.9389 26.8769 17.5617 27.0698 17.1601 27.0698H13.9634C13.5618 27.0698 13.1847 26.8769 12.9497 26.5512L6.20037 17.1955C5.86729 16.7338 5.88826 16.1053 6.25137 15.6669L8.74773 12.6524Z" fill="url(#paint2_linear_11381_2156)" stroke="url(#paint3_linear_11381_2156)" stroke-width="0.15625"/>
<path d="M9.28097 13.3081C9.50358 13.0379 9.83534 12.8813 10.1854 12.8813H20.9413C21.2914 12.8813 21.6232 13.0379 21.8458 13.3081L23.833 15.7202C24.1754 16.1358 24.1905 16.7313 23.8695 17.1637L17.7404 25.4223C17.5193 25.7202 17.1703 25.8958 16.7994 25.8958H14.3274C13.9565 25.8958 13.6075 25.7202 13.3864 25.4223L7.25724 17.1637C6.93631 16.7313 6.95139 16.1358 7.29379 15.7202L9.28097 13.3081Z" fill="url(#paint4_linear_11381_2156)" stroke="url(#paint5_linear_11381_2156)" stroke-width="0.15625"/>
<mask id="path-8-outside-1_11381_2156" maskUnits="userSpaceOnUse" x="12.2061" y="12.9097" width="6" height="11" fill="black">
<rect fill="white" x="12.2061" y="12.9097" width="6" height="11"/>
<path d="M17.3861 21.3936V22.9097H12.5027V21.6407C13.9492 19.275 14.808 17.812 15.079 17.2517C15.3536 16.6878 15.491 16.2483 15.491 15.9334C15.491 15.6917 15.4488 15.5122 15.3646 15.395C15.2841 15.2742 15.1595 15.2138 14.9911 15.2138C14.8226 15.2138 14.6963 15.2797 14.6121 15.4115C14.5315 15.5434 14.4912 15.8052 14.4912 16.197V17.043H12.5027V16.7189C12.5027 16.2208 12.5283 15.829 12.5796 15.5434C12.6309 15.254 12.7572 14.9702 12.9586 14.6919C13.16 14.4136 13.4219 14.203 13.7441 14.0602C14.0664 13.9174 14.4528 13.846 14.9032 13.846C15.7858 13.846 16.4523 14.0657 16.9027 14.5051C17.3568 14.9409 17.5839 15.4939 17.5839 16.1641C17.5839 16.6731 17.4557 17.2114 17.1993 17.7791C16.9466 18.3467 16.1977 19.5515 14.9526 21.3936H17.3861Z"/>
</mask>
<path d="M17.3861 21.3936V22.9097H12.5027V21.6407C13.9492 19.275 14.808 17.812 15.079 17.2517C15.3536 16.6878 15.491 16.2483 15.491 15.9334C15.491 15.6917 15.4488 15.5122 15.3646 15.395C15.2841 15.2742 15.1595 15.2138 14.9911 15.2138C14.8226 15.2138 14.6963 15.2797 14.6121 15.4115C14.5315 15.5434 14.4912 15.8052 14.4912 16.197V17.043H12.5027V16.7189C12.5027 16.2208 12.5283 15.829 12.5796 15.5434C12.6309 15.254 12.7572 14.9702 12.9586 14.6919C13.16 14.4136 13.4219 14.203 13.7441 14.0602C14.0664 13.9174 14.4528 13.846 14.9032 13.846C15.7858 13.846 16.4523 14.0657 16.9027 14.5051C17.3568 14.9409 17.5839 15.4939 17.5839 16.1641C17.5839 16.6731 17.4557 17.2114 17.1993 17.7791C16.9466 18.3467 16.1977 19.5515 14.9526 21.3936H17.3861Z" fill="url(#paint6_linear_11381_2156)"/>
<path d="M17.3861 21.3936H17.5423V21.2373H17.3861V21.3936ZM17.3861 22.9097V23.0659H17.5423V22.9097H17.3861ZM12.5027 22.9097H12.3464V23.0659H12.5027V22.9097ZM12.5027 21.6407L12.3694 21.5592L12.3464 21.5968V21.6407H12.5027ZM15.079 17.2517L14.9385 17.1833L14.9383 17.1837L15.079 17.2517ZM15.3646 15.395L15.2345 15.4818L15.2377 15.4862L15.3646 15.395ZM14.6121 15.4115L14.4804 15.3274L14.4787 15.33L14.6121 15.4115ZM14.4912 17.043V17.1992H14.6475V17.043H14.4912ZM12.5027 17.043H12.3464V17.1992H12.5027V17.043ZM12.5796 15.5434L12.7334 15.571L12.7334 15.5706L12.5796 15.5434ZM12.9586 14.6919L13.0852 14.7835L12.9586 14.6919ZM16.9027 14.5051L16.7936 14.617L16.7945 14.6179L16.9027 14.5051ZM17.1993 17.7791L17.0569 17.7148L17.0566 17.7155L17.1993 17.7791ZM14.9526 21.3936L14.8232 21.3061L14.6584 21.5498H14.9526V21.3936ZM17.2298 21.3936V22.9097H17.5423V21.3936H17.2298ZM17.3861 22.7534H12.5027V23.0659H17.3861V22.7534ZM12.6589 22.9097V21.6407H12.3464V22.9097H12.6589ZM12.636 21.7223C14.0807 19.3595 14.9445 17.8887 15.2196 17.3198L14.9383 17.1837C14.6715 17.7354 13.8177 19.1906 12.3694 21.5592L12.636 21.7223ZM15.2194 17.3201C15.4962 16.7519 15.6472 16.2856 15.6472 15.9334H15.3347C15.3347 16.211 15.2111 16.6236 14.9385 17.1833L15.2194 17.3201ZM15.6472 15.9334C15.6472 15.6789 15.6039 15.4602 15.4915 15.3038L15.2377 15.4862C15.2938 15.5643 15.3347 15.7044 15.3347 15.9334H15.6472ZM15.4946 15.3084C15.3801 15.1366 15.2021 15.0575 14.9911 15.0575V15.37C15.117 15.37 15.188 15.4118 15.2346 15.4817L15.4946 15.3084ZM14.9911 15.0575C14.7742 15.0575 14.5959 15.1466 14.4804 15.3274L14.7437 15.4956C14.7967 15.4127 14.8711 15.37 14.9911 15.37V15.0575ZM14.4787 15.33C14.4226 15.4219 14.3883 15.5442 14.367 15.683C14.3452 15.8246 14.335 15.9965 14.335 16.197H14.6475C14.6475 16.0057 14.6573 15.8508 14.6759 15.7305C14.6948 15.6075 14.721 15.533 14.7454 15.493L14.4787 15.33ZM14.335 16.197V17.043H14.6475V16.197H14.335ZM14.4912 16.8867H12.5027V17.1992H14.4912V16.8867ZM12.6589 17.043V16.7189H12.3464V17.043H12.6589ZM12.6589 16.7189C12.6589 16.2245 12.6845 15.8433 12.7334 15.571L12.4258 15.5157C12.3721 15.8147 12.3464 16.2171 12.3464 16.7189H12.6589ZM12.7334 15.5706C12.78 15.3082 12.8953 15.0459 13.0852 14.7835L12.832 14.6003C12.6191 14.8945 12.4818 15.1999 12.4257 15.5161L12.7334 15.5706ZM13.0852 14.7835C13.27 14.5282 13.5097 14.335 13.8074 14.203L13.6808 13.9173C13.334 14.0711 13.0501 14.299 12.832 14.6003L13.0852 14.7835ZM13.8074 14.203C14.1051 14.0712 14.4687 14.0022 14.9032 14.0022V13.6897C14.4368 13.6897 14.0277 13.7636 13.6808 13.9173L13.8074 14.203ZM14.9032 14.0022C15.7616 14.0022 16.3824 14.2158 16.7936 14.617L17.0118 14.3933C16.5222 13.9156 15.81 13.6897 14.9032 13.6897V14.0022ZM16.7945 14.6179C17.2158 15.0221 17.4276 15.5334 17.4276 16.1641H17.7401C17.7401 15.4544 17.4978 14.8597 17.0109 14.3924L16.7945 14.6179ZM17.4276 16.1641C17.4276 16.6466 17.3061 17.1629 17.0569 17.7148L17.3417 17.8434C17.6052 17.26 17.7401 16.6997 17.7401 16.1641H17.4276ZM17.0566 17.7155C16.8106 18.268 16.0706 19.4606 14.8232 21.3061L15.0821 21.4811C16.3249 19.6424 17.0826 18.4254 17.3421 17.8426L17.0566 17.7155ZM14.9526 21.5498H17.3861V21.2373H14.9526V21.5498Z" fill="url(#paint7_linear_11381_2156)" mask="url(#path-8-outside-1_11381_2156)"/>
<defs>
<linearGradient id="paint0_linear_11381_2156" x1="15.5526" y1="28.343" x2="15.5605" y2="12.1952" gradientUnits="userSpaceOnUse">
<stop offset="0.05" stop-color="#A4B9BB"/>
<stop offset="0.06" stop-color="#82B1B4"/>
<stop offset="0.08" stop-color="#91C0C4"/>
<stop offset="0.1" stop-color="#9AC9CE"/>
<stop offset="0.13" stop-color="#9CB1B3"/>
<stop offset="0.23" stop-color="#C9D8DA"/>
<stop offset="0.51" stop-color="#B5C0C1"/>
<stop offset="0.57" stop-color="#CECECE"/>
<stop offset="0.64" stop-color="#8BB6BC"/>
<stop offset="0.65" stop-color="#AECCD0"/>
<stop offset="0.67" stop-color="#CBDFE1"/>
<stop offset="0.68" stop-color="#E2EDEE"/>
<stop offset="0.69" stop-color="#F2F7F8"/>
<stop offset="0.71" stop-color="#FCFDFD"/>
<stop offset="0.73" stop-color="white"/>
<stop offset="0.74" stop-color="#E6EDEE"/>
<stop offset="0.77" stop-color="#B1C0C1"/>
<stop offset="0.79" stop-color="#94A9AB"/>
<stop offset="0.83" stop-color="#97A9AA"/>
<stop offset="0.86" stop-color="#95A5A7"/>
<stop offset="0.87" stop-color="#90A0A2"/>
<stop offset="0.96" stop-color="#66878A"/>
<stop offset="0.98" stop-color="#6D9093"/>
<stop offset="0.99" stop-color="#86AEB1"/>
<stop offset="1" stop-color="#BECECF"/>
</linearGradient>
<linearGradient id="paint1_linear_11381_2156" x1="15.5625" y1="10.7669" x2="15.5625" y2="28.7368" gradientUnits="userSpaceOnUse">
<stop stop-color="#030506"/>
<stop offset="0.24" stop-color="#C0C0C0"/>
<stop offset="0.36" stop-color="#BEE1E4"/>
<stop offset="0.7" stop-color="#D9D9D9"/>
<stop offset="0.85" stop-color="#BCDFE2"/>
<stop offset="1" stop-color="#BDE0E3"/>
</linearGradient>
<linearGradient id="paint2_linear_11381_2156" x1="15.5618" y1="12.0857" x2="15.5618" y2="26.8955" gradientUnits="userSpaceOnUse">
<stop stop-color="#7FADB0"/>
<stop offset="0.0555556" stop-color="#82B1B4"/>
<stop offset="0.111111" stop-color="#91C0C4"/>
<stop offset="0.166667" stop-color="#9AC9CE"/>
<stop offset="0.222222" stop-color="#9DCCD1"/>
<stop offset="0.277778" stop-color="#9CD0D5"/>
<stop offset="0.333333" stop-color="#90C3C8"/>
<stop offset="0.388889" stop-color="#B2CECE"/>
<stop offset="0.444444" stop-color="#96CCD0"/>
<stop offset="0.5" stop-color="#B0CACC"/>
<stop offset="0.555556" stop-color="#7DA5A9"/>
<stop offset="0.611111" stop-color="#7CA3A7"/>
<stop offset="0.666667" stop-color="#7BA1A5"/>
<stop offset="0.722222" stop-color="#76999D"/>
<stop offset="0.777778" stop-color="#739598"/>
<stop offset="0.833333" stop-color="#66878A"/>
<stop offset="0.888889" stop-color="#6D9093"/>
<stop offset="0.944444" stop-color="#86AEB1"/>
<stop offset="1" stop-color="#A6D6D9"/>
</linearGradient>
<linearGradient id="paint3_linear_11381_2156" x1="15.5618" y1="7.7515" x2="15.5618" y2="27.2751" gradientUnits="userSpaceOnUse">
<stop stop-color="#030506"/>
<stop offset="0.24" stop-color="#D6D6D6"/>
<stop offset="0.36" stop-color="#BEE1E4"/>
<stop offset="0.7" stop-color="#E6E6E6"/>
<stop offset="0.85" stop-color="#BCDFE2"/>
<stop offset="1" stop-color="#BDE0E3"/>
</linearGradient>
<linearGradient id="paint4_linear_11381_2156" x1="15.5634" y1="12.8032" x2="15.5634" y2="25.974" gradientUnits="userSpaceOnUse">
<stop stop-color="#8CB5B9"/>
<stop offset="1"/>
</linearGradient>
<linearGradient id="paint5_linear_11381_2156" x1="15.5634" y1="12.6493" x2="15.5634" y2="26.1267" gradientUnits="userSpaceOnUse">
<stop stop-color="#004650"/>
<stop offset="0.395831" stop-color="#007F8A"/>
<stop offset="1" stop-color="#030506"/>
</linearGradient>
<linearGradient id="paint6_linear_11381_2156" x1="14.4656" y1="12.9961" x2="21.2097" y2="20.0837" gradientUnits="userSpaceOnUse">
<stop offset="0.149636" stop-color="#E9FEFF"/>
<stop offset="0.277151" stop-color="#FDFEFE"/>
<stop offset="0.7947" stop-color="#AEF6F7"/>
<stop offset="1" stop-color="white"/>
</linearGradient>
<linearGradient id="paint7_linear_11381_2156" x1="15.5629" y1="24.7775" x2="15.5629" y2="12.3168" gradientUnits="userSpaceOnUse">
<stop offset="0.04" stop-color="#3D5253"/>
<stop offset="1" stop-color="#719295"/>
</linearGradient>
</defs>
</svg>
