<svg width="30" height="31" viewBox="0 0 30 31" fill="none" xmlns="http://www.w3.org/2000/svg">
<path d="M6.55664 0.000488281H12.9063L21.3726 20.4954H15.0229L6.55664 0.000488281Z" fill="#D17348"/>
<path d="M8.96777 0.000488281H11.0057L19.3079 20.4954H17.434L8.96777 0.000488281Z" fill="white"/>
<path d="M22.5688 0.000488281H16.2192L7.7529 20.4954H14.1026L22.5688 0.000488281Z" fill="#D17348"/>
<path d="M20.332 0.000488281H18.2941L9.99187 20.4954H11.8658L20.332 0.000488281Z" fill="white"/>
<path d="M6.68736 12.2064C6.92364 11.8943 7.29249 11.7109 7.68395 11.7109H21.441C21.8324 11.7109 22.2013 11.8943 22.4375 12.2064L25.5786 16.3553C25.9046 16.7858 25.9172 17.3769 25.61 17.821L18.0602 28.7331C17.8268 29.0705 17.4426 29.2719 17.0323 29.2719H12.0926C11.6823 29.2719 11.2981 29.0705 11.0647 28.7331L3.5149 17.821C3.20767 17.3769 3.22031 16.7858 3.54626 16.3553L6.68736 12.2064Z" fill="url(#paint0_linear_11381_2188)" stroke="url(#paint1_linear_11381_2188)" stroke-width="0.15625"/>
<path d="M7.74919 13.3912C7.98666 13.1044 8.3396 12.9385 8.71192 12.9385H20.4146C20.7869 12.9385 21.1399 13.1044 21.3773 13.3912L23.8737 16.4056C24.2368 16.8441 24.2578 17.4725 23.9247 17.9342L17.1753 27.2899C16.9403 27.6156 16.5632 27.8086 16.1616 27.8086H12.9649C12.5633 27.8086 12.1861 27.6156 11.9512 27.2899L5.20183 17.9342C4.86876 17.4725 4.88973 16.8441 5.25284 16.4056L7.74919 13.3912Z" fill="url(#paint2_linear_11381_2188)" stroke="url(#paint3_linear_11381_2188)" stroke-width="0.15625"/>
<path d="M8.27951 14.0439C8.50212 13.7737 8.83388 13.6172 9.18398 13.6172H19.9399C20.29 13.6172 20.6217 13.7737 20.8443 14.0439L22.8315 16.4561C23.1739 16.8717 23.189 17.4672 22.8681 17.8996L16.7389 26.1582C16.5179 26.4561 16.1688 26.6317 15.7979 26.6317H13.326C12.955 26.6317 12.606 26.4561 12.3849 26.1582L6.25577 17.8996C5.93485 17.4672 5.94993 16.8717 6.29233 16.4561L8.27951 14.0439Z" fill="url(#paint4_linear_11381_2188)" stroke="url(#paint5_linear_11381_2188)" stroke-width="0.15625"/>
<mask id="path-8-outside-1_11381_2188" maskUnits="userSpaceOnUse" x="11.2061" y="13.6484" width="6" height="11" fill="black">
<rect fill="white" x="11.2061" y="13.6484" width="6" height="11"/>
<path d="M15.7709 18.6112C16.1078 18.7247 16.3586 18.9115 16.5234 19.1715C16.6882 19.4279 16.7706 20.0321 16.7706 20.9843C16.7706 21.691 16.6901 22.2404 16.5289 22.6322C16.3678 23.0204 16.0895 23.317 15.694 23.5221C15.2985 23.7235 14.7913 23.8242 14.1724 23.8242C13.4692 23.8242 12.9163 23.707 12.5134 23.4727C12.1143 23.2346 11.8506 22.9453 11.7224 22.6047C11.5979 22.2605 11.5356 21.6654 11.5356 20.8195V20.1163H13.7549V21.561C13.7549 21.9456 13.7769 22.1909 13.8208 22.2971C13.8684 22.3997 13.9709 22.4509 14.1284 22.4509C14.3005 22.4509 14.4141 22.385 14.469 22.2532C14.5239 22.1213 14.5514 21.7771 14.5514 21.2205V20.6052C14.5514 20.2647 14.5129 20.0156 14.436 19.8582C14.3591 19.7007 14.2456 19.5982 14.0955 19.5505C13.9453 19.4993 13.6542 19.47 13.222 19.4627V18.1718C13.7494 18.1718 14.0753 18.1516 14.1998 18.1113C14.3243 18.0711 14.4141 17.9832 14.469 17.8477C14.5239 17.7122 14.5514 17.4998 14.5514 17.2105V16.7161C14.5514 16.4048 14.5184 16.1997 14.4525 16.1008C14.3903 16.002 14.2914 15.9525 14.1559 15.9525C14.0021 15.9525 13.8959 16.0056 13.8373 16.1118C13.7823 16.2144 13.7549 16.4359 13.7549 16.7765V17.5071H11.5356V16.749C11.5356 15.8994 11.7297 15.3263 12.1179 15.0297C12.5061 14.7294 13.1232 14.5792 13.9691 14.5792C15.0275 14.5792 15.7452 14.7862 16.1224 15.2C16.4996 15.6138 16.6882 16.1887 16.6882 16.9248C16.6882 17.4229 16.6205 17.7836 16.485 18.007C16.3495 18.2267 16.1114 18.4281 15.7709 18.6112Z"/>
</mask>
<path d="M15.7709 18.6112C16.1078 18.7247 16.3586 18.9115 16.5234 19.1715C16.6882 19.4279 16.7706 20.0321 16.7706 20.9843C16.7706 21.691 16.6901 22.2404 16.5289 22.6322C16.3678 23.0204 16.0895 23.317 15.694 23.5221C15.2985 23.7235 14.7913 23.8242 14.1724 23.8242C13.4692 23.8242 12.9163 23.707 12.5134 23.4727C12.1143 23.2346 11.8506 22.9453 11.7224 22.6047C11.5979 22.2605 11.5356 21.6654 11.5356 20.8195V20.1163H13.7549V21.561C13.7549 21.9456 13.7769 22.1909 13.8208 22.2971C13.8684 22.3997 13.9709 22.4509 14.1284 22.4509C14.3005 22.4509 14.4141 22.385 14.469 22.2532C14.5239 22.1213 14.5514 21.7771 14.5514 21.2205V20.6052C14.5514 20.2647 14.5129 20.0156 14.436 19.8582C14.3591 19.7007 14.2456 19.5982 14.0955 19.5505C13.9453 19.4993 13.6542 19.47 13.222 19.4627V18.1718C13.7494 18.1718 14.0753 18.1516 14.1998 18.1113C14.3243 18.0711 14.4141 17.9832 14.469 17.8477C14.5239 17.7122 14.5514 17.4998 14.5514 17.2105V16.7161C14.5514 16.4048 14.5184 16.1997 14.4525 16.1008C14.3903 16.002 14.2914 15.9525 14.1559 15.9525C14.0021 15.9525 13.8959 16.0056 13.8373 16.1118C13.7823 16.2144 13.7549 16.4359 13.7549 16.7765V17.5071H11.5356V16.749C11.5356 15.8994 11.7297 15.3263 12.1179 15.0297C12.5061 14.7294 13.1232 14.5792 13.9691 14.5792C15.0275 14.5792 15.7452 14.7862 16.1224 15.2C16.4996 15.6138 16.6882 16.1887 16.6882 16.9248C16.6882 17.4229 16.6205 17.7836 16.485 18.007C16.3495 18.2267 16.1114 18.4281 15.7709 18.6112Z" fill="url(#paint6_linear_11381_2188)"/>
<path d="M15.7709 18.6112L15.6969 18.4736L15.3795 18.6442L15.721 18.7593L15.7709 18.6112ZM16.5234 19.1715L16.3914 19.2552L16.392 19.256L16.5234 19.1715ZM16.5289 22.6322L16.6732 22.6921L16.6734 22.6916L16.5289 22.6322ZM15.694 23.5221L15.7649 23.6613L15.7659 23.6608L15.694 23.5221ZM12.5134 23.4727L12.4334 23.6069L12.4348 23.6077L12.5134 23.4727ZM11.7224 22.6047L11.5755 22.6579L11.5762 22.6598L11.7224 22.6047ZM11.5356 20.1163V19.9601H11.3794V20.1163H11.5356ZM13.7549 20.1163H13.9111V19.9601H13.7549V20.1163ZM13.8208 22.2971L13.6763 22.3569L13.6791 22.3629L13.8208 22.2971ZM14.0955 19.5505L14.045 19.6984L14.0482 19.6995L14.0955 19.5505ZM13.222 19.4627H13.0658V19.6163L13.2194 19.6189L13.222 19.4627ZM13.222 18.1718V18.0155H13.0658V18.1718H13.222ZM14.4525 16.1008L14.3202 16.1841L14.3225 16.1875L14.4525 16.1008ZM13.8373 16.1118L13.7005 16.0363L13.6995 16.038L13.8373 16.1118ZM13.7549 17.5071V17.6633H13.9111V17.5071H13.7549ZM11.5356 17.5071H11.3794V17.6633H11.5356V17.5071ZM12.1179 15.0297L12.2128 15.1538L12.2135 15.1533L12.1179 15.0297ZM16.485 18.007L16.618 18.089L16.6186 18.088L16.485 18.007ZM15.721 18.7593C16.0295 18.8632 16.2487 19.03 16.3915 19.2552L16.6554 19.0879C16.4685 18.793 16.1861 18.5862 15.8208 18.4631L15.721 18.7593ZM16.392 19.256C16.455 19.354 16.5134 19.5404 16.554 19.8381C16.5939 20.1305 16.6144 20.5118 16.6144 20.9843H16.9269C16.9269 20.5046 16.9062 20.1077 16.8636 19.7959C16.8218 19.4893 16.7567 19.2454 16.6549 19.087L16.392 19.256ZM16.6144 20.9843C16.6144 21.6825 16.5343 22.2083 16.3844 22.5728L16.6734 22.6916C16.8458 22.2724 16.9269 21.6996 16.9269 20.9843H16.6144ZM16.3846 22.5723C16.2385 22.9244 15.987 23.1941 15.622 23.3834L15.7659 23.6608C16.1919 23.4399 16.4971 23.1164 16.6732 22.6921L16.3846 22.5723ZM15.6231 23.3829C15.2564 23.5696 14.7758 23.668 14.1724 23.668V23.9805C14.8067 23.9805 15.3405 23.8775 15.7649 23.6613L15.6231 23.3829ZM14.1724 23.668C13.4839 23.668 12.9618 23.5528 12.592 23.3376L12.4348 23.6077C12.8707 23.8613 13.4546 23.9805 14.1724 23.9805V23.668ZM12.5935 23.3385C12.2161 23.1134 11.9812 22.8489 11.8686 22.5497L11.5762 22.6598C11.7199 23.0417 12.0124 23.3558 12.4334 23.6069L12.5935 23.3385ZM11.8693 22.5516C11.755 22.2354 11.6919 21.6648 11.6919 20.8195H11.3794C11.3794 21.666 11.4408 22.2856 11.5755 22.6579L11.8693 22.5516ZM11.6919 20.8195V20.1163H11.3794V20.8195H11.6919ZM11.5356 20.2726H13.7549V19.9601H11.5356V20.2726ZM13.5986 20.1163V21.561H13.9111V20.1163H13.5986ZM13.5986 21.561C13.5986 21.7557 13.6042 21.9183 13.6157 22.0474C13.6269 22.1721 13.6447 22.2803 13.6764 22.3569L13.9652 22.2374C13.9529 22.2077 13.9378 22.1402 13.927 22.0195C13.9166 21.9033 13.9111 21.7509 13.9111 21.561H13.5986ZM13.6791 22.3629C13.7623 22.5421 13.938 22.6072 14.1284 22.6072V22.2947C14.0039 22.2947 13.9746 22.2572 13.9625 22.2313L13.6791 22.3629ZM14.1284 22.6072C14.2337 22.6072 14.3342 22.5871 14.4211 22.5366C14.51 22.485 14.5738 22.4078 14.6132 22.3133L14.3248 22.1931C14.3092 22.2304 14.2888 22.2521 14.2642 22.2664C14.2376 22.2818 14.1953 22.2947 14.1284 22.2947V22.6072ZM14.6132 22.3133C14.6512 22.222 14.6728 22.0804 14.6865 21.9085C14.7007 21.7306 14.7076 21.5008 14.7076 21.2205H14.3951C14.3951 21.4968 14.3883 21.7174 14.375 21.8837C14.3613 22.0561 14.3417 22.1525 14.3248 22.1931L14.6132 22.3133ZM14.7076 21.2205V20.6052H14.3951V21.2205H14.7076ZM14.7076 20.6052C14.7076 20.2592 14.6696 19.9803 14.5764 19.7896L14.2956 19.9267C14.3563 20.0509 14.3951 20.2701 14.3951 20.6052H14.7076ZM14.5764 19.7896C14.4831 19.5985 14.3384 19.4637 14.1427 19.4016L14.0482 19.6995C14.1528 19.7327 14.2352 19.8029 14.2956 19.9267L14.5764 19.7896ZM14.1459 19.4027C13.9692 19.3423 13.6542 19.3137 13.2247 19.3064L13.2194 19.6189C13.6541 19.6262 13.9214 19.6562 14.045 19.6984L14.1459 19.4027ZM13.3783 19.4627V18.1718H13.0658V19.4627H13.3783ZM13.222 18.328C13.4872 18.328 13.7041 18.323 13.8716 18.3126C14.034 18.3026 14.1647 18.2869 14.2479 18.26L14.1517 17.9627C14.1104 17.976 14.016 17.9906 13.8524 18.0007C13.6939 18.0105 13.4842 18.0155 13.222 18.0155V18.328ZM14.2479 18.26C14.4219 18.2037 14.5438 18.079 14.6138 17.9064L14.3242 17.789C14.2843 17.8873 14.2268 17.9384 14.1517 17.9627L14.2479 18.26ZM14.6138 17.9064C14.6805 17.7417 14.7076 17.5041 14.7076 17.2105H14.3951C14.3951 17.4954 14.3673 17.6826 14.3242 17.789L14.6138 17.9064ZM14.7076 17.2105V16.7161H14.3951V17.2105H14.7076ZM14.7076 16.7161C14.7076 16.5558 14.6992 16.4177 14.6809 16.304C14.6632 16.1935 14.6339 16.0913 14.5825 16.0142L14.3225 16.1875C14.337 16.2092 14.3572 16.2591 14.3724 16.3536C14.3871 16.445 14.3951 16.5651 14.3951 16.7161H14.7076ZM14.5847 16.0176C14.4889 15.8654 14.335 15.7963 14.1559 15.7963V16.1088C14.2477 16.1088 14.2916 16.1386 14.3203 16.1841L14.5847 16.0176ZM14.1559 15.7963C13.963 15.7963 13.7942 15.8664 13.7005 16.0364L13.9741 16.1873C13.9975 16.1448 14.0411 16.1088 14.1559 16.1088V15.7963ZM13.6995 16.038C13.6581 16.1155 13.6347 16.2201 13.6204 16.3357C13.6056 16.4552 13.5986 16.6027 13.5986 16.7765H13.9111C13.9111 16.6097 13.9179 16.4761 13.9305 16.3741C13.9437 16.2682 13.9616 16.2107 13.975 16.1856L13.6995 16.038ZM13.5986 16.7765V17.5071H13.9111V16.7765H13.5986ZM13.7549 17.3508H11.5356V17.6633H13.7549V17.3508ZM11.6919 17.5071V16.749H11.3794V17.5071H11.6919ZM11.6919 16.749C11.6919 15.9133 11.8844 15.4047 12.2128 15.1538L12.023 14.9055C11.575 15.2479 11.3794 15.8856 11.3794 16.749H11.6919ZM12.2135 15.1533C12.5607 14.8847 13.1352 14.7355 13.9691 14.7355V14.423C13.1111 14.423 12.4515 14.5741 12.0223 14.9061L12.2135 15.1533ZM13.9691 14.7355C15.0189 14.7355 15.6769 14.9431 16.007 15.3052L16.2379 15.0947C15.8136 14.6292 15.036 14.423 13.9691 14.423V14.7355ZM16.007 15.3052C16.3505 15.6822 16.532 16.2151 16.532 16.9248H16.8445C16.8445 16.1623 16.6487 15.5454 16.2379 15.0947L16.007 15.3052ZM16.532 16.9248C16.532 17.416 16.4638 17.7405 16.3514 17.9259L16.6186 18.088C16.7771 17.8266 16.8445 17.4297 16.8445 16.9248H16.532ZM16.352 17.925C16.2364 18.1124 16.0244 18.2975 15.6969 18.4736L15.8449 18.7488C16.1985 18.5587 16.4626 18.341 16.618 18.089L16.352 17.925Z" fill="url(#paint7_linear_11381_2188)" mask="url(#path-8-outside-1_11381_2188)"/>
<defs>
<linearGradient id="paint0_linear_11381_2188" x1="14.5545" y1="29.0859" x2="14.5625" y2="11.7148" gradientUnits="userSpaceOnUse">
<stop offset="0.05" stop-color="#FFEDD8"/>
<stop offset="0.06" stop-color="#FFE0C2"/>
<stop offset="0.08" stop-color="#FFD3AB"/>
<stop offset="0.09" stop-color="#FFC99B"/>
<stop offset="0.11" stop-color="#FFC491"/>
<stop offset="0.13" stop-color="#FFC28E"/>
<stop offset="0.32" stop-color="#E18B6A"/>
<stop offset="0.4" stop-color="#AD5035"/>
<stop offset="0.52" stop-color="#FFBD89"/>
<stop offset="0.64" stop-color="#F9B183"/>
<stop offset="0.66" stop-color="#FBC9A7"/>
<stop offset="0.67" stop-color="#FCDDC4"/>
<stop offset="0.68" stop-color="#FDECDB"/>
<stop offset="0.7" stop-color="#FEF7EB"/>
<stop offset="0.71" stop-color="#FFFDF5"/>
<stop offset="0.73" stop-color="#FFFFF8"/>
<stop offset="0.74" stop-color="#F5E6E0"/>
<stop offset="0.76" stop-color="#DAA4A2"/>
<stop offset="0.78" stop-color="#B75051"/>
<stop offset="0.79" stop-color="#B4524A"/>
<stop offset="0.81" stop-color="#B6544A"/>
<stop offset="0.83" stop-color="#BD5C49"/>
<stop offset="0.84" stop-color="#D17247"/>
<stop offset="0.9" stop-color="#D27449"/>
<stop offset="0.92" stop-color="#D47A50"/>
<stop offset="0.94" stop-color="#D7845D"/>
<stop offset="0.96" stop-color="#DC936E"/>
<stop offset="0.97" stop-color="#E3A685"/>
<stop offset="0.98" stop-color="#EBBEA2"/>
<stop offset="0.99" stop-color="#F5D9C3"/>
<stop offset="1" stop-color="#FFF6E5"/>
</linearGradient>
<linearGradient id="paint1_linear_11381_2188" x1="14.5644" y1="11.506" x2="14.5644" y2="29.4797" gradientUnits="userSpaceOnUse">
<stop stop-color="#FFF9E7"/>
<stop offset="0.24" stop-color="#E0AC97"/>
<stop offset="0.36" stop-color="#F0BCA7"/>
<stop offset="0.7" stop-color="#EEBAA5"/>
<stop offset="0.85" stop-color="#F3CDC2"/>
<stop offset="1" stop-color="#6D4F47"/>
</linearGradient>
<linearGradient id="paint2_linear_11381_2188" x1="14.5623" y1="12.8217" x2="14.5623" y2="27.6382" gradientUnits="userSpaceOnUse">
<stop stop-color="#AD5035"/>
<stop offset="0.13" stop-color="#FFC28E"/>
<stop offset="0.29" stop-color="#E18B6A"/>
<stop offset="0.37" stop-color="#FFBD89"/>
<stop offset="0.45" stop-color="#F4A372"/>
<stop offset="0.46" stop-color="#DD8664"/>
<stop offset="0.48" stop-color="#CB6F58"/>
<stop offset="0.5" stop-color="#BE5F50"/>
<stop offset="0.52" stop-color="#B6554C"/>
<stop offset="0.54" stop-color="#B4524A"/>
<stop offset="0.58" stop-color="#B6544A"/>
<stop offset="0.61" stop-color="#BD5C49"/>
<stop offset="0.62" stop-color="#CA6A48"/>
<stop offset="0.63" stop-color="#D17247"/>
<stop offset="0.82" stop-color="#CF7047"/>
<stop offset="0.91" stop-color="#C96948"/>
<stop offset="0.97" stop-color="#BD5C49"/>
<stop offset="1" stop-color="#B4524A"/>
</linearGradient>
<linearGradient id="paint3_linear_11381_2188" x1="14.5623" y1="12.7304" x2="14.5623" y2="28.018" gradientUnits="userSpaceOnUse">
<stop stop-color="#FFF9E7"/>
<stop offset="0.24" stop-color="#E0AC97"/>
<stop offset="0.36" stop-color="#F0BCA7"/>
<stop offset="0.7" stop-color="#EEBAA5"/>
<stop offset="0.85" stop-color="#F3CDC2"/>
<stop offset="1" stop-color="#6D4F47"/>
</linearGradient>
<linearGradient id="paint4_linear_11381_2188" x1="14.5619" y1="13.5391" x2="14.5619" y2="26.7098" gradientUnits="userSpaceOnUse">
<stop stop-color="#B3825A"/>
<stop offset="1"/>
</linearGradient>
<linearGradient id="paint5_linear_11381_2188" x1="14.5619" y1="13.3851" x2="14.5619" y2="26.8625" gradientUnits="userSpaceOnUse">
<stop stop-color="#B5534B"/>
<stop offset="0.395831" stop-color="#B15539"/>
<stop offset="1" stop-color="#080605"/>
</linearGradient>
<linearGradient id="paint6_linear_11381_2188" x1="14.5649" y1="25.5201" x2="14.5649" y2="13.5708" gradientUnits="userSpaceOnUse">
<stop stop-color="#F0A584"/>
<stop offset="0.161452" stop-color="white"/>
<stop offset="0.583334" stop-color="#F6C7AE"/>
<stop offset="0.723962" stop-color="#FAE0CD"/>
<stop offset="1" stop-color="#FFFDF4"/>
</linearGradient>
<linearGradient id="paint7_linear_11381_2188" x1="14.5629" y1="25.5163" x2="14.5629" y2="13.0556" gradientUnits="userSpaceOnUse">
<stop offset="0.04" stop-color="#B55152"/>
<stop offset="1" stop-color="#BA594A"/>
</linearGradient>
</defs>
</svg>
